# xmcd
#
# Track frame offsets:
#  150
#  5720
#  11244
#  24960
#  46809
#  57678
#  82313
#  106574
#  109129
#  114382
#  138545
#  157763
#  170256
#  189359
#
# Disc length: 2859 seconds
#
# Revision: 0
# Processed by: cddbd v1.5.1PL2 Copyright (c) Steve Scherf et al.
# Submitted via: Collectorz.com_Music_Collector 6.9
#
DISCID=ad0b290e
DTITLE=Bruce Springsteen - How Nebraska Was Born... - Disc 2
DYEAR=1982
DGENRE=Acoustic
TTITLE0=Nebraska #1
TTITLE1=Nebraska #2
TTITLE2=Born In The Usa
TTITLE3=Losin' Kind (Patrolman)
TTITLE4=Downbound Train
TTITLE5=Deputy (Highway Patrolman)
TTITLE6=Child Bride
TTITLE7=Dream Baby
TTITLE8=Precious Memories
TTITLE9=Pink Cadillac
TTITLE10=James Lincoln Dear
TTITLE11=All I Need
TTITLE12=Fade To Black #2
TTITLE13=My Father's House (Japanese Version)
EXTD=
EXTT0=
EXTT1=
EXTT2=
EXTT3=
EXTT4=
EXTT5=
EXTT6=
EXTT7=
EXTT8=
EXTT9=
EXTT10=
EXTT11=
EXTT12=
EXTT13=
PLAYORDER=
